<svg width="3508" height="3508" viewBox="0 0 3508 3508" fill="none" xmlns="http://www.w3.org/2000/svg">
<circle cx="1754" cy="1754" r="1745.24" fill="url(#paint0_linear_26_31)" stroke="url(#paint1_linear_26_31)" stroke-width="17.5186"/>
<path d="M2002.88 2212.6L2092.86 1954.42L2255.41 1850.35L2493.75 2061.93L2097.06 2306.76L2027.54 2615.1L1747.08 2379.61L1479.97 2612.9L1410.98 2306.76L1014.33 2061.8L1252.68 1850.21L1415.31 1954.42L1505.29 2212.73L2002.92 2212.6H2002.88ZM1061.18 1565.48L1476.04 1219.66L1539.81 1500.38L1441.34 1808.73L1061.18 1565.48ZM1968.05 1500.38L2031.83 1219.66L2446.68 1565.48L2066.7 1808.73L1968.05 1500.38ZM1548.6 1922L1681.32 1506.42L1595.36 1127.43C1694.67 1075.99 1812.93 1075.99 1912.24 1127.43L1826.28 1506.42L1958.99 1922L1905.34 2076.2H1822.21L1823.05 1896.94L1686.09 1896.2L1685.25 2076.11H1602.52L1548.56 1922.05L1548.6 1922ZM1159.73 735.406L1438.47 1072.99L1194.87 1276.07C1131.18 1083.61 1141.88 870.881 1159.73 735.362M2069.57 1073.04L2348.31 735.45C2366.16 871.013 2376.86 1083.7 2313.17 1276.16L2069.57 1073.04ZM1955.55 996.271C1827.65 937.738 1680.48 937.738 1552.54 996.271L1086.19 431.555L1052.38 561.085C1031.57 648.686 1018.31 737.872 1012.7 827.719C995.418 1011.25 1019.46 1196.31 1083.1 1369.36L830.527 1580.01L1133.08 1773.62L786.2 2081.53L1289.98 2392.65L1396.84 2867.07L1748.85 2559.65L2111.86 2864.56L2218.2 2392.56L2721.8 2081.53L2375.13 1773.62L2677.69 1580.01L2425.12 1369.36C2488.76 1196.27 2512.84 1011.25 2495.56 827.719C2489.95 737.872 2476.65 648.686 2455.88 561.085L2422.07 431.555L1955.64 996.271H1955.55Z" fill="url(#paint2_linear_26_31)"/>
<defs>
<linearGradient id="paint0_linear_26_31" x1="1754" y1="0" x2="1754" y2="3508" gradientUnits="userSpaceOnUse">
<stop stop-color="#13233A"/>
<stop offset="1" stop-color="#05142B" stop-opacity="0.81"/>
</linearGradient>
<linearGradient id="paint1_linear_26_31" x1="1754" y1="0" x2="1754" y2="3508" gradientUnits="userSpaceOnUse">
<stop stop-color="#00BD01"/>
<stop offset="1" stop-color="#12FF0E"/>
</linearGradient>
<linearGradient id="paint2_linear_26_31" x1="1754" y1="431.555" x2="1754" y2="2867.07" gradientUnits="userSpaceOnUse">
<stop stop-color="#00BD01"/>
<stop offset="1" stop-color="#12FF0E"/>
</linearGradient>
</defs>
</svg>
