<svg width="459" height="459" viewBox="0 0 459 459" fill="none" xmlns="http://www.w3.org/2000/svg">
<circle cx="229.5" cy="229.5" r="228.354" fill="url(#paint0_linear_6_75)" stroke="url(#paint1_linear_6_75)" stroke-width="2.2922"/>
<path d="M262.064 289.505L273.838 255.724L295.106 242.106L326.292 269.79L274.387 301.825L265.291 342.17L228.595 311.357L193.645 341.882L184.618 301.825L132.719 269.773L163.905 242.089L185.185 255.724L196.958 289.522L262.07 289.505H262.064ZM138.849 204.833L193.13 159.584L201.474 196.316L188.591 236.661L138.849 204.833ZM257.508 196.316L265.852 159.584L320.133 204.833L270.415 236.661L257.508 196.316ZM202.625 251.482L219.99 197.105L208.743 147.517C221.737 140.786 237.211 140.786 250.204 147.517L238.957 197.105L256.322 251.482L249.302 271.657H238.425L238.535 248.203L220.615 248.105L220.505 271.646H209.68L202.619 251.488L202.625 251.482ZM151.744 96.2231L188.215 140.394L156.341 166.966C148.008 141.783 149.408 113.949 151.744 96.2174M270.79 140.4L307.261 96.2289C309.598 113.967 310.997 141.795 302.664 166.978L270.79 140.4ZM255.871 130.356C239.136 122.697 219.88 122.697 203.14 130.356L142.122 56.4662L137.698 73.4143C134.974 84.8764 133.24 96.5459 132.505 108.302C130.244 132.315 133.39 156.53 141.717 179.172L108.669 206.735L148.257 232.068L102.869 272.355L168.785 313.063L182.768 375.139L228.826 334.915L276.324 374.81L290.237 313.051L356.13 272.355L310.771 232.068L350.359 206.735L317.311 179.172C325.638 156.524 328.79 132.315 326.529 108.302C325.795 96.5459 324.054 84.8764 321.336 73.4143L316.912 56.4662L255.883 130.356H255.871Z" fill="url(#paint2_linear_6_75)"/>
<defs>
<linearGradient id="paint0_linear_6_75" x1="229.5" y1="0" x2="229.5" y2="459" gradientUnits="userSpaceOnUse">
<stop stop-color="#13233A"/>
<stop offset="1" stop-color="#05142B" stop-opacity="0.81"/>
</linearGradient>
<linearGradient id="paint1_linear_6_75" x1="229.5" y1="0" x2="229.5" y2="459" gradientUnits="userSpaceOnUse">
<stop stop-color="#00BD01"/>
<stop offset="1" stop-color="#12FF0E"/>
</linearGradient>
<linearGradient id="paint2_linear_6_75" x1="229.5" y1="56.4662" x2="229.5" y2="375.139" gradientUnits="userSpaceOnUse">
<stop stop-color="#00BD01"/>
<stop offset="1" stop-color="#12FF0E"/>
</linearGradient>
</defs>
</svg>
